<svg width="79" height="37" viewBox="0 0 79 37" fill="none" xmlns="http://www.w3.org/2000/svg">
<path d="M15.5238 20.3466L11.0343 20.3466L11.0343 24.895L15.5238 24.895L15.5238 20.3466Z" fill="#FFDD00"/>
<path d="M24.5028 15.7981L20.0133 15.7981L20.0133 20.3465L24.5028 20.3465L24.5028 15.7981Z" fill="#A1DAF8"/>
<path d="M24.5028 11.2497L20.0133 11.2497L20.0133 15.7981L24.5028 15.7981L24.5028 11.2497Z" fill="#00B1EB"/>
<rect width="4.48948" height="4.54844" transform="matrix(-1 2.21162e-08 2.15983e-08 1 24.5028 20.3466)" fill="#D4EDFC"/>
<rect width="4.48947" height="4.54844" transform="matrix(-1 2.21427e-08 2.15724e-08 1 20.0133 20.3466)" fill="#A1DAF8"/>
<path d="M24.5028 24.895L20.0133 24.895L22.2581 27.1692L24.5028 29.4434L24.5028 24.895Z" fill="#5BC5F2"/>
<rect width="4.48947" height="4.54844" transform="matrix(-1 2.21427e-08 2.15724e-08 1 15.5238 15.7981)" fill="#D8F0FF"/>
<rect width="4.48947" height="4.54844" transform="matrix(-1 2.21427e-08 2.15724e-08 1 20.0133 11.2497)" fill="#5BC5F2"/>
<rect width="4.48947" height="4.54844" transform="matrix(-1 2.21883e-08 2.15281e-08 1 11.0344 6.70123)" fill="#1D1D20"/>
<rect width="4.48947" height="4.54844" transform="matrix(-1 2.21427e-08 2.15724e-08 1 20.0133 15.7981)" fill="#E30613"/>
<path d="M31.427 11.3964H29.6735V16.5387H31.2981C33.0731 16.5387 34.0035 15.8702 34.0035 13.9382C34.0035 12.0061 33.0015 11.3964 31.427 11.3964ZM31.3769 15.3192H31.0763V12.6159H31.4198C32.2858 12.6159 32.5793 13.0126 32.5793 13.9602C32.5793 14.9813 32.2429 15.3192 31.3769 15.3192Z" fill="#1D1D20"/>
<path d="M36.9357 11.3964H35.5186V16.5387H36.9357V11.3964Z" fill="#1D1D20"/>
<path d="M42.9735 13.7178H40.7691V14.783H41.6781C41.6208 15.1356 41.4276 15.4147 40.8407 15.4147C40.1965 15.4147 39.8745 14.9887 39.8745 13.9676C39.8745 13.1521 40.0963 12.5571 40.7476 12.5571C41.2272 12.5571 41.4276 12.8216 41.5922 13.2623L42.8518 12.7555C42.494 11.7931 42.0073 11.3156 40.7548 11.3156C39.2375 11.3156 38.4216 12.4469 38.4216 13.9676C38.4216 15.6498 39.3591 16.6195 40.7333 16.6195C42.1862 16.6195 42.9735 15.8114 42.9735 14.3422V13.7178Z" fill="#1D1D20"/>
<path d="M45.8843 11.3964H44.4672V16.5387H45.8843V11.3964Z" fill="#1D1D20"/>
<path d="M51.5643 11.3964H47.3702V12.6379H48.773V16.5387H50.1615V12.6379H51.5643V11.3964Z" fill="#1D1D20"/>
<path d="M54.1351 14.5038L54.2281 14.1659C54.4071 13.5121 54.4858 13.2256 54.5502 12.8803C54.6146 13.2256 54.6934 13.5048 54.8723 14.1659L54.9653 14.5038H54.1351ZM55.2588 11.3964H53.856L52.0381 16.5387H53.5267L53.7987 15.6351H55.3017L55.5737 16.5387H57.0767L55.2588 11.3964Z" fill="#1D1D20"/>
<path d="M62.056 15.2972H59.8373V11.3964H58.4345V16.5387H62.056V15.2972Z" fill="#1D1D20"/>
<path d="M31.8421 20.6378C31.1979 20.4836 31.019 20.3954 31.019 20.2044C31.019 20.0208 31.1192 19.8885 31.5343 19.8885C32.0425 19.8885 32.4862 20.0648 32.93 20.3734L33.6027 19.2568C33.0731 18.8748 32.4576 18.6617 31.6059 18.6617C30.3963 18.6617 29.6305 19.3155 29.6305 20.2852C29.6305 21.3137 30.2103 21.6516 31.4198 21.9381C32.0926 22.0997 32.2715 22.2172 32.2715 22.4082C32.2715 22.6507 32.1141 22.7388 31.6202 22.7388C31.155 22.7388 30.518 22.4817 30.153 22.2246L29.4802 23.3412C30.0027 23.6938 30.7828 23.9656 31.5916 23.9656C32.794 23.9656 33.66 23.4808 33.66 22.3054C33.66 21.3431 33.1017 20.9464 31.8421 20.6378Z" fill="#1D1D20"/>
<path d="M38.1248 21.9969C37.8528 22.4817 37.6668 22.7241 37.2302 22.7241C36.629 22.7241 36.3856 22.0997 36.3856 21.3137C36.3856 20.4983 36.6361 19.9032 37.2159 19.9032C37.6739 19.9032 37.8457 20.2044 38.0246 20.6819L39.2843 20.175C38.9407 19.2053 38.454 18.6617 37.223 18.6617C35.8775 18.6617 34.9327 19.6608 34.9327 21.3137C34.9327 22.8343 35.7272 23.9656 37.2159 23.9656C38.4039 23.9656 38.9622 23.3118 39.2986 22.636L38.1248 21.9969Z" fill="#1D1D20"/>
<path d="M45.0855 18.7425H43.6683V20.6158H42.1081V18.7425H40.691V23.8848H42.1081V21.8573H43.6683V23.8848H45.0855V18.7425Z" fill="#1D1D20"/>
<path d="M51.7692 18.7425H50.5096L49.894 20.1163C49.5791 20.8141 49.3501 21.3724 49.2642 21.6663C49.1855 21.3798 48.9278 20.7774 48.6344 20.1163L48.0189 18.7425H46.7449V23.8848H48.0475V22.658C48.0475 22.1511 48.0403 21.6883 48.0189 21.2916C48.1692 21.6736 48.4268 22.2687 48.5986 22.636L49.2571 24.0611L49.9155 22.636C50.0873 22.2687 50.3449 21.6736 50.4952 21.2916C50.4738 21.6883 50.4666 22.1511 50.4666 22.658V23.8848H51.7692V18.7425Z" fill="#1D1D20"/>
<path d="M54.8808 18.7425H53.4637V23.8848H54.8808V18.7425Z" fill="#1D1D20"/>
<path d="M60.4606 22.6874H57.9484V21.8059H59.4299V20.6231H57.9484V19.94H60.4104V18.7425H56.5742V23.8848H60.4606V22.6874Z" fill="#1D1D20"/>
<path d="M63.7456 18.7425H61.9921V23.8848H63.6168C65.3918 23.8848 66.3222 23.2163 66.3222 21.2843C66.3222 19.3523 65.3202 18.7425 63.7456 18.7425ZM63.6955 22.6654H63.3949V19.962H63.7385C64.6045 19.962 64.8979 20.3587 64.8979 21.3063C64.8979 22.3274 64.5615 22.6654 63.6955 22.6654Z" fill="#1D1D20"/>
<path d="M71.6877 22.6874H69.1756V21.8059H70.6571V20.6231H69.1756V19.94H71.6376V18.7425H67.8014V23.8848H71.6877V22.6874Z" fill="#1D1D20"/>
<path d="M31.1658 28.0269C31.3304 27.9188 31.4306 27.7335 31.4306 27.5018C31.4306 27.0385 31.1228 26.7875 30.6361 26.7875H29.4874V29.4902H30.6254C31.1622 29.4902 31.5165 29.1852 31.5165 28.6176C31.5165 28.3204 31.3662 28.1234 31.1658 28.0269ZM30.6397 27.7991H29.9777V27.2856H30.6147C30.833 27.2856 30.9224 27.3744 30.9224 27.5443C30.9224 27.6949 30.8473 27.7991 30.6397 27.7991ZM30.6433 28.9767H29.9777V28.2779H30.6433C30.8866 28.2779 31.0012 28.3937 31.0012 28.6254C31.0012 28.8377 30.8866 28.9767 30.6433 28.9767Z" fill="#1D1D20"/>
<path d="M36.192 28.3744L36.3531 27.8841C36.4032 27.7258 36.4533 27.5636 36.4783 27.4632C36.5034 27.5636 36.5535 27.7258 36.6036 27.8841L36.7646 28.3744H36.192ZM36.7324 26.7875H36.2457L35.2867 29.4902H35.8234L36.0203 28.8879H36.9364L37.1332 29.4902H37.6843L36.7324 26.7875Z" fill="#1D1D20"/>
<path d="M42.8438 26.7875L42.4896 27.4285C42.3965 27.5983 42.2641 27.857 42.2176 27.9574C42.1711 27.857 42.0351 27.5906 41.9456 27.4285L41.5913 26.7875H41.0152L41.9635 28.4323V29.4902H42.4645V28.4207L43.4128 26.7875H42.8438Z" fill="#1D1D20"/>
<path d="M49.1309 28.9613H47.839V28.3088H48.5583V27.7837H47.839V27.3165H49.0772V26.7875H47.338V29.4902H49.1309V28.9613Z" fill="#1D1D20"/>
<path d="M54.3463 28.0076H53.6914V27.3126H54.3463C54.5681 27.3126 54.7041 27.413 54.7041 27.6563C54.7041 27.8918 54.5789 28.0076 54.3463 28.0076ZM54.7399 28.44C55.0584 28.3049 55.2194 28.0501 55.2194 27.6447C55.2194 27.0694 54.8294 26.7875 54.357 26.7875H53.1904V29.4902H53.6914V28.5173H54.196L54.6433 29.4902H55.2194L54.7399 28.44Z" fill="#1D1D20"/>
<path d="M61.299 26.7875H60.8051V27.9304C60.8051 28.081 60.8123 28.4207 60.8123 28.5211C60.7801 28.4516 60.6978 28.3165 60.6369 28.2161L59.7494 26.7875H59.2699V29.4902H59.7638V28.301C59.7638 28.1505 59.7566 27.8107 59.7566 27.7103C59.7888 27.7798 59.8711 27.9149 59.9319 28.0153L60.8516 29.4902H61.299V26.7875Z" fill="#1D1D20"/>
</svg>
