<svg width="241" height="50" viewBox="0 0 241 50" fill="none" xmlns="http://www.w3.org/2000/svg">
  <path d="M54.1925 36.2113H64.863V40.2212H48.6874V36.5511L59.2899 20.5115H48.6874V16.5015H64.863V20.1716L54.1925 36.2113ZM86.6854 21.395V40.2212H81.8939V37.8424C81.2823 38.658 80.478 39.3037 79.4812 39.7794C78.507 40.2325 77.4423 40.4591 76.2869 40.4591C74.8143 40.4591 73.5116 40.1532 72.3789 39.5415C71.2462 38.9072 70.3513 37.9897 69.6943 36.789C69.06 35.5656 68.7428 34.1157 68.7428 32.4392V21.395H73.5003V31.7596C73.5003 33.2548 73.8741 34.4102 74.6217 35.2258C75.3693 36.0187 76.3888 36.4152 77.6801 36.4152C78.9941 36.4152 80.0249 36.0187 80.7725 35.2258C81.5201 34.4102 81.8939 33.2548 81.8939 31.7596V21.395H86.6854ZM96.137 24.1136C96.7487 23.2527 97.587 22.5391 98.6517 21.9727C99.7392 21.3837 100.974 21.0892 102.356 21.0892C103.964 21.0892 105.414 21.4856 106.706 22.2785C108.02 23.0715 109.05 24.2042 109.798 25.6768C110.568 27.1267 110.953 28.8145 110.953 30.7401C110.953 32.6658 110.568 34.3762 109.798 35.8715C109.05 37.344 108.02 38.4881 106.706 39.3037C105.414 40.1192 103.964 40.527 102.356 40.527C100.974 40.527 99.7505 40.2438 98.6857 39.6775C97.6436 39.1111 96.794 38.3975 96.137 37.5366V49.1925H91.3795V21.395H96.137V24.1136ZM106.094 30.7401C106.094 29.6074 105.856 28.6332 105.38 27.8177C104.927 26.9794 104.315 26.3451 103.545 25.9146C102.798 25.4842 101.982 25.269 101.098 25.269C100.238 25.269 99.422 25.4955 98.6517 25.9486C97.9041 26.3791 97.2924 27.0134 96.8167 27.8516C96.3636 28.6899 96.137 29.6754 96.137 30.8081C96.137 31.9408 96.3636 32.9263 96.8167 33.7646C97.2924 34.6028 97.9041 35.2484 98.6517 35.7015C99.422 36.132 100.238 36.3472 101.098 36.3472C101.982 36.3472 102.798 36.1207 103.545 35.6676C104.315 35.2145 104.927 34.5688 105.38 33.7306C105.856 32.8923 106.094 31.8955 106.094 30.7401ZM131.911 30.4003C131.911 31.08 131.866 31.6916 131.775 32.2354H118.013C118.126 33.5946 118.602 34.6594 119.44 35.4297C120.278 36.2 121.309 36.5851 122.532 36.5851C124.299 36.5851 125.557 35.8261 126.304 34.3083H131.436C130.892 36.1207 129.85 37.6159 128.309 38.7939C126.769 39.9493 124.877 40.527 122.634 40.527C120.822 40.527 119.191 40.1306 117.741 39.3377C116.313 38.5221 115.192 37.378 114.377 35.9054C113.584 34.4329 113.187 32.7338 113.187 30.8081C113.187 28.8598 113.584 27.1493 114.377 25.6768C115.169 24.2042 116.28 23.0715 117.707 22.2785C119.134 21.4856 120.777 21.0892 122.634 21.0892C124.424 21.0892 126.021 21.4743 127.426 22.2446C128.853 23.0148 129.952 24.1136 130.722 25.5408C131.515 26.9454 131.911 28.5653 131.911 30.4003ZM126.984 29.041C126.961 27.8177 126.52 26.8435 125.659 26.1185C124.798 25.3709 123.744 24.9971 122.498 24.9971C121.32 24.9971 120.323 25.3596 119.508 26.0846C118.715 26.7869 118.228 27.7723 118.047 29.041H126.984ZM140.141 24.3175C140.753 23.3207 141.546 22.5391 142.52 21.9727C143.517 21.4063 144.65 21.1231 145.918 21.1231V26.1185H144.661C143.166 26.1185 142.033 26.4697 141.263 27.172C140.515 27.8743 140.141 29.0977 140.141 30.8421V40.2212H135.384V21.395H140.141V24.3175ZM153.88 24.1136C154.492 23.2527 155.33 22.5391 156.395 21.9727C157.483 21.3837 158.717 21.0892 160.099 21.0892C161.708 21.0892 163.158 21.4856 164.449 22.2785C165.763 23.0715 166.794 24.2042 167.541 25.6768C168.312 27.1267 168.697 28.8145 168.697 30.7401C168.697 32.6658 168.312 34.3762 167.541 35.8715C166.794 37.344 165.763 38.4881 164.449 39.3037C163.158 40.1192 161.708 40.527 160.099 40.527C158.717 40.527 157.494 40.2438 156.429 39.6775C155.387 39.1111 154.537 38.3975 153.88 37.5366V49.1925H149.123V21.395H153.88V24.1136ZM163.837 30.7401C163.837 29.6074 163.599 28.6332 163.124 27.8177C162.67 26.9794 162.059 26.3451 161.289 25.9146C160.541 25.4842 159.725 25.269 158.842 25.269C157.981 25.269 157.165 25.4955 156.395 25.9486C155.647 26.3791 155.036 27.0134 154.56 27.8516C154.107 28.6899 153.88 29.6754 153.88 30.8081C153.88 31.9408 154.107 32.9263 154.56 33.7646C155.036 34.6028 155.647 35.2484 156.395 35.7015C157.165 36.132 157.981 36.3472 158.842 36.3472C159.725 36.3472 160.541 36.1207 161.289 35.6676C162.059 35.2145 162.67 34.5688 163.124 33.7306C163.599 32.8923 163.837 31.8955 163.837 30.7401ZM170.93 30.7401C170.93 28.8371 171.304 27.1493 172.052 25.6768C172.822 24.2042 173.853 23.0715 175.144 22.2785C176.458 21.4856 177.92 21.0892 179.528 21.0892C180.933 21.0892 182.156 21.3723 183.198 21.9387C184.263 22.5051 185.112 23.2187 185.747 24.0796V21.395H190.538V40.2212H185.747V37.4686C185.135 38.3522 184.286 39.0884 183.198 39.6775C182.133 40.2438 180.899 40.527 179.494 40.527C177.908 40.527 176.458 40.1192 175.144 39.3037C173.853 38.4881 172.822 37.344 172.052 35.8715C171.304 34.3762 170.93 32.6658 170.93 30.7401ZM185.747 30.8081C185.747 29.6527 185.52 28.6672 185.067 27.8516C184.614 27.0134 184.002 26.3791 183.232 25.9486C182.462 25.4955 181.635 25.269 180.751 25.269C179.868 25.269 179.052 25.4842 178.305 25.9146C177.557 26.3451 176.945 26.9794 176.47 27.8177C176.017 28.6332 175.79 29.6074 175.79 30.7401C175.79 31.8729 176.017 32.8697 176.47 33.7306C176.945 34.5688 177.557 35.2145 178.305 35.6676C179.075 36.1207 179.89 36.3472 180.751 36.3472C181.635 36.3472 182.462 36.132 183.232 35.7015C184.002 35.2484 184.614 34.6141 185.067 33.7985C185.52 32.9603 185.747 31.9635 185.747 30.8081ZM221.283 21.395L215.778 40.2212H210.647L207.215 27.07L203.782 40.2212H198.617L193.078 21.395H197.903L201.234 35.7355L204.836 21.395H209.865L213.399 35.7015L216.73 21.395H221.283ZM231.062 40.527C229.521 40.527 228.139 40.2552 226.916 39.7115C225.692 39.1451 224.718 38.3861 223.993 37.4346C223.291 36.4831 222.906 35.4297 222.838 34.2743H227.629C227.72 34.9992 228.071 35.5996 228.683 36.0754C229.317 36.5511 230.099 36.789 231.028 36.789C231.934 36.789 232.636 36.6077 233.135 36.2453C233.656 35.8828 233.916 35.4184 233.916 34.852C233.916 34.2403 233.599 33.7872 232.965 33.4927C232.353 33.1755 231.367 32.8357 230.008 32.4732C228.604 32.1334 227.448 31.7823 226.542 31.4198C225.658 31.0573 224.888 30.5023 224.231 29.7546C223.597 29.007 223.28 27.9989 223.28 26.7302C223.28 25.6881 223.574 24.7366 224.163 23.8757C224.775 23.0148 225.636 22.3352 226.746 21.8368C227.879 21.3384 229.204 21.0892 230.722 21.0892C232.965 21.0892 234.754 21.6555 236.091 22.7883C237.428 23.8984 238.164 25.4049 238.3 27.3079H233.746C233.678 26.5603 233.361 25.9713 232.795 25.5408C232.251 25.0877 231.515 24.8612 230.586 24.8612C229.725 24.8612 229.057 25.0198 228.581 25.3369C228.128 25.6541 227.901 26.0959 227.901 26.6623C227.901 27.2966 228.218 27.7837 228.853 28.1235C229.487 28.4407 230.473 28.7692 231.809 29.109C233.169 29.4488 234.29 29.8 235.174 30.1624C236.057 30.5249 236.816 31.0913 237.45 31.8615C238.107 32.6092 238.447 33.606 238.47 34.852C238.47 35.9394 238.164 36.9136 237.552 37.7745C236.963 38.6354 236.102 39.315 234.97 39.8134C233.86 40.2892 232.557 40.527 231.062 40.527Z" fill="black" />
  <path d="M32.0571 20.3049C29.9983 19.1468 27.5618 19.597 26.6027 21.302C25.6436 23.007 27.0312 24.4415 29.0815 25.5948C31.1317 26.748 33.0782 27.189 34.0372 25.4841C34.9964 23.779 34.1159 21.463 32.0571 20.3049Z" fill="black" />
  <path d="M26.5855 15.1687C25.5576 15.1291 24.7073 16.0852 24.6764 17.2977C24.6454 18.5103 25.451 19.5209 26.4776 19.5559C27.5042 19.5909 28.3558 18.6395 28.3869 17.4267C28.4177 16.2142 27.6121 15.2037 26.5855 15.1688L26.5855 15.1687Z" fill="black" />
  <path d="M39.2867 22.3138C38.7237 21.4546 37.4481 21.2795 36.4215 21.947C35.3949 22.6144 35.0286 23.8277 35.5933 24.6843C36.1579 25.5407 37.4399 25.7043 38.4585 25.051C39.4773 24.3976 39.8544 23.1717 39.2867 22.3138Z" fill="black" />
  <path d="M33.9183 16.2481C33.3467 17.8491 31.91 18.7946 30.7092 18.3602C29.5084 17.9258 28.9984 16.2758 29.5697 14.675C30.1413 13.074 31.578 12.1284 32.7788 12.5628C33.9796 12.9972 34.4898 14.6471 33.9183 16.2481Z" fill="black" />
  <path d="M34.6475 20.5772C35.6423 21.3784 37.3141 20.9624 38.3871 19.6376C39.4598 18.3126 39.5217 16.597 38.5268 15.796C37.532 14.9949 35.8602 15.4108 34.7828 16.7371C33.7056 18.063 33.65 19.7746 34.6475 20.5773L34.6475 20.5772Z" fill="black" />
  <path d="M18.4036 35.538C17.2814 34.4011 15.582 34.1381 13.9104 34.8029C13.0875 35.1036 12.3781 35.6689 11.8593 36.309C11.2702 37.0315 10.9353 37.8537 10.9442 38.7373C10.8998 40.1136 10.6579 41.5223 10.1206 43.4754C9.95234 44.0696 10.0195 44.7194 10.2843 45.3366C10.5112 45.8657 10.9357 46.3623 11.4374 46.6691C12.3963 47.3018 13.4856 47.2522 14.2844 46.6486C14.9492 46.1025 15.9919 45.0811 16.4402 44.5234C17.0293 43.8009 17.8333 43.4561 18.7629 43.5272C19.5206 43.5676 20.9346 43.5353 21.7885 43.4301C21.9861 43.3976 22.1837 43.365 22.3623 43.2884C23.077 42.9819 23.5768 42.2977 23.7845 41.4256C23.9081 40.8506 23.8409 40.2008 23.614 39.6717C23.3492 39.0545 22.9437 38.602 22.3783 38.2703C20.8919 37.394 19.4433 36.6059 18.4036 35.538Z" fill="black" />
  <path d="M8.76333 36.4886C9.17055 36.5749 9.55886 36.6172 9.89044 36.5272C10.0434 36.5138 10.1774 36.4563 10.356 36.3797C10.5794 36.2839 10.7391 36.1632 10.9435 36.0233C11.1995 35.7569 11.4176 35.4024 11.5275 35.0421C11.5927 34.7009 11.639 34.3156 11.5581 33.8805C11.4342 33.0984 10.9856 32.299 10.3326 31.6395C9.6795 30.98 8.9045 30.5294 8.13473 30.3375C7.72751 30.2512 7.3392 30.2089 7.00761 30.2989C6.61246 30.364 6.27403 30.5614 5.99918 30.7837C5.74324 31.05 5.52512 31.4046 5.41524 31.7649C5.35004 32.1061 5.30374 32.4913 5.3846 32.9265C5.50849 33.7085 5.95712 34.5079 6.61017 35.1675C7.21856 35.8461 7.99355 36.2968 8.76333 36.4886Z" fill="black" />
  <path d="M14.1779 33.3311C14.5336 33.544 14.8773 33.6054 15.2913 33.5844C15.5078 33.5959 15.7312 33.5001 15.9545 33.4044C16.0885 33.3469 16.2225 33.2894 16.3823 33.1687C16.6571 32.9464 16.913 32.68 17.1312 32.3255C17.5227 31.6355 17.7304 30.7634 17.7027 29.8357C17.675 28.908 17.3604 28.0511 16.9238 27.4031C16.6832 27.0887 16.3979 26.7935 16.0611 26.6247C15.7054 26.4119 15.3618 26.3505 14.9477 26.3715C14.5783 26.3733 14.2209 26.5266 13.9014 26.768C13.6266 26.9903 13.3706 27.2567 13.1525 27.6112C12.7609 28.3012 12.5533 29.1733 12.581 30.101C12.6087 31.0287 12.9233 31.8856 13.3599 32.5336C13.5747 32.9112 13.8858 33.1432 14.1779 33.3311Z" fill="black" />
  <path d="M9.3631 40.3544C9.33898 40.0516 9.20661 39.7429 9.07423 39.4343C8.72016 38.8554 8.1685 38.3089 7.50175 37.8641C6.79034 37.4384 6.06523 37.2274 5.37109 37.2119C5.00169 37.2138 4.69587 37.2405 4.3832 37.3746C4.07053 37.5087 3.79568 37.731 3.64798 38.0032C3.50029 38.2753 3.43508 38.6165 3.43345 38.9826C3.45758 39.2854 3.58995 39.5941 3.72232 39.9027C4.0764 40.4817 4.62805 41.0281 5.2948 41.4729C6.00622 41.8986 6.73132 42.1096 7.42546 42.1251C7.79486 42.1232 8.10068 42.0965 8.41336 41.9624L8.45802 41.9432C8.77069 41.8091 9.00088 41.606 9.14857 41.3338C9.34093 41.0425 9.40614 40.7014 9.3631 40.3544Z" fill="black" />
  <path d="M22.9448 29.7272C22.7231 29.4568 22.4309 29.2689 22.0873 29.2075C21.7883 29.1269 21.4378 29.1729 21.1252 29.307C20.8572 29.4219 20.5823 29.6442 20.3264 29.9106C19.8592 30.4242 19.5312 31.1391 19.3303 31.9038C19.1484 32.7126 19.164 33.4889 19.3841 34.1254C19.4718 34.4531 19.6489 34.7426 19.8517 34.9688C20.0734 35.2392 20.3655 35.4271 20.7091 35.4885C21.0081 35.5691 21.3586 35.5231 21.6266 35.4082L21.6713 35.389C21.9393 35.2741 22.2141 35.0518 22.4701 34.7854C22.9373 34.2718 23.2653 33.5569 23.4661 32.7922C23.648 31.9834 23.6324 31.2071 23.4123 30.5706C23.3246 30.2429 23.1476 29.9534 22.9448 29.7272Z" fill="black" />
  <path d="M85.1909 15.5261L92.1942 16.8848C92.5339 16.9507 92.6981 17.3406 92.5077 17.63L88.1423 24.2734L98.9165 15.2756L91.9131 13.9169C91.5734 13.8509 91.4093 13.461 91.5997 13.1717L95.965 6.52824L85.1909 15.5261ZM84 16.2867C83.5975 16.2085 83.4662 15.6982 83.7813 15.4352L97.8671 3.67182C98.2971 3.31298 98.8931 3.84476 98.5854 4.3128L92.8113 13.0995L100.107 14.5153C100.51 14.5935 100.641 15.1038 100.326 15.3668L86.24 27.1302C85.81 27.489 85.214 26.9572 85.5217 26.4892L91.2958 17.7024L84 16.2867Z" fill="#FFBF00" />
</svg>